<?xml version="1.0" encoding="UTF-8" standalone="no" ?>
<!DOCTYPE svg PUBLIC "-//W3C//DTD SVG 1.1//EN" "http://www.w3.org/Graphics/SVG/1.1/DTD/svg11.dtd">
<svg xmlns="http://www.w3.org/2000/svg" xmlns:xlink="http://www.w3.org/1999/xlink" version="1.1" width="1280" height="1024" viewBox="0 0 1280 1024" xml:space="preserve">
<desc>Created with Fabric.js 5.3.0</desc>
<defs>
</defs>
<g transform="matrix(1 0 0 1 640 512)" id="background-logo"  >
<rect style="stroke: none; stroke-width: 0; stroke-dasharray: none; stroke-linecap: butt; stroke-dashoffset: 0; stroke-linejoin: miter; stroke-miterlimit: 4; fill: rgb(255,255,255); fill-rule: nonzero; opacity: 1;"  paint-order="stroke"  x="-640" y="-512" rx="0" ry="0" width="1280" height="1024" />
</g>
<g transform="matrix(5.271729991972038 0 0 5.271729991972038 640.4585373317012 529.552186591926)" id="shape-90885f19-0d0e-4d2b-b89c-b06e225eba54"  >
<g style=""  paint-order="stroke"   >
		<g transform="matrix(1 0 0 1 -11.908017906140259 -19.93094036476154)" id="path-02"  >
<path style="stroke: none; stroke-width: 0; stroke-dasharray: none; stroke-linecap: butt; stroke-dashoffset: 0; stroke-linejoin: miter; stroke-miterlimit: 4; fill: rgb(129,20,20); fill-rule: nonzero; opacity: 1;"  paint-order="stroke"  transform=" translate(-99.88564858416403, -18.65640229068382)" d="M 180.3219 27.07347 C 180.3219 27.07347 156.50769 31.52794 141.85669000000001 32.28801 C 127.20569000000002 33.04802 115.21826000000001 29.98601 104.25342 25.85844 C 96.53198 22.95176 88.39148 13.755530000000002 84.24780000000001 8.566020000000002 C 87.10522000000002 10.296550000000002 90.70239000000001 12.449200000000001 93.95239000000001 15.148230000000002 C 104.06054 23.54313 128.20923 23.147190000000002 143.35205000000002 20.69462 C 161.31189 17.78581 140.37476 6.960610000000001 140.37476 6.960610000000001 L 177.28003 19.68504 L 180.3219 27.07347 Z M 92.16647 16.64454 C 88.3605 13.935759999999998 84.48429 11.325669999999999 80.54305000000001 8.817779999999999 C 78.34198 7.417199999999999 76.08694000000001 6.03309 73.58589 5.2907399999999996 C 71.77741 4.75395 69.61424000000001 4.640879999999999 68.20791000000001 5.8982399999999995 C 67.17602000000001 6.820819999999999 66.80567 8.25104 66.40603000000002 9.57627 C 65.75234000000002 11.743939999999998 64.88983000000002 13.848589999999998 63.83432000000001 15.851589999999998 C 62.897680000000015 17.629039999999996 61.80734000000001 19.33128 61.03664000000001 21.186719999999998 C 60.25857000000001 23.05991 59.818010000000015 25.072709999999997 59.742440000000016 27.099669999999996 C 59.72964000000002 27.443059999999996 59.731850000000016 27.805749999999996 59.90293000000002 28.103759999999998 C 60.09113000000002 28.431579999999997 60.44746000000002 28.619749999999996 60.78870000000002 28.782349999999997 C 65.67936000000002 31.11274 71.19731000000002 31.697549999999996 76.60003000000002 32.097409999999996 C 79.97768000000002 32.34739 83.45721000000002 32.526469999999996 86.67071000000001 31.456659999999996 C 82.62649000000002 30.636789999999994 78.66399000000001 29.414349999999995 74.86078000000002 27.813269999999996 C 73.46308000000002 27.224859999999996 72.06221000000002 26.569429999999997 70.94316000000002 25.545939999999995 C 69.82411000000002 24.522449999999992 69.01062000000002 23.067359999999994 69.08832000000002 21.552849999999996 C 69.14841000000003 20.381609999999995 69.73267000000003 19.284259999999996 70.51658000000002 18.411959999999997 C 72.42527000000001 16.288089999999997 75.43772000000001 15.425739999999998 78.29178000000002 15.516499999999997 C 81.14584000000002 15.607259999999997 83.89991000000002 16.536689999999997 86.58641000000001 17.504499999999997 C 89.86102000000001 18.684169999999998 93.29994000000002 20.077009999999998 95.32754000000001 22.906059999999997 M 56.91077 9.31378 C 58.14624 9.09464 61.20934 9.30472 61.96878 8.157259999999999 C 60.15541 7.161719999999999 57.0983 7.2099899999999995 55.05689 7.181609999999999 C 52.62951 7.147859999999999 50.20159 7.379339999999999 47.81313 7.805899999999999 C 42.85195 8.69192 38.07472 10.393339999999998 33.38662 12.24268 C 29.51298 13.77074 25.6415 15.42714 22.28331 17.88937 C 21.0248 18.81211 19.77113 19.9684 19.49494 21.50431 C 19.40779 21.98896 19.4321 22.51552 19.68816 22.93614 C 20.12061 23.64648 21.04626 23.84476 21.87049 23.95539 C 27.14503 24.66338 32.52863 24.501520000000003 37.74685 25.5466 C 40.274190000000004 26.052760000000003 42.74248 26.83865 45.28511 27.26134 C 50.4666 28.12273 55.77431 27.45129 61.017480000000006 27.76591 C 58.48545000000001 27.103460000000002 55.964180000000006 26.399890000000003 53.455000000000005 25.65556 C 51.398590000000006 25.045540000000003 49.33999000000001 24.40409 47.41798000000001 23.45183 C 45.62604000000001 22.56402 43.84973000000001 21.2541 43.30814000000001 19.32901 C 42.76593000000001 17.40171 43.64139000000001 15.286750000000001 45.069590000000005 13.88364 C 46.49779 12.48053 48.39788000000001 11.67085 50.291970000000006 11.02209 C 52.44981000000001 10.28299 54.664950000000005 9.71212 56.91075000000001 9.313780000000001 Z" stroke-linecap="round" />
</g>
		<g transform="matrix(1 0 0 1 1.421085e-14 0)" id="path-01"  >
<path style="stroke: none; stroke-width: 0; stroke-dasharray: none; stroke-linecap: butt; stroke-dashoffset: 0; stroke-linejoin: miter; stroke-miterlimit: 4; fill: rgb(212,43,44); fill-rule: nonzero; opacity: 1;"  paint-order="stroke"  transform=" translate(-111.7936664903043, -38.58734265544536)" d="M 182.06006 64.02507 C 195.20006999999998 61.845079999999996 209.45996 60.15507 219.77002 50.90507 C 211.88012999999998 62.115030000000004 194.88012999999998 64.83506 182.06006 64.02507 Z M 219.09009 46.16503 C 208.78003 55.41503 194.52002 57.09508 181.37012 59.27508 C 194.20007999999999 60.095090000000006 211.19007 57.365050000000004 219.09008999999998 46.16503 Z M 220.45996 55.65508 C 210.15001999999998 64.90508 195.89001 66.58507 182.73998999999998 68.76507 C 195.57007 69.58507999999999 212.57007 66.85503999999999 220.45995999999997 55.65508 Z M 165.57642 68.47734 C 165.62354000000002 67.54961 165.61438 66.61906 165.54700000000003 65.69261 C 165.53601000000003 65.54124 165.52075000000002 65.38206 165.43408000000002 65.25743 C 165.29712000000004 65.06041 165.03137 65.01231 164.79394000000002 64.97764 C 163.18627 64.74333 161.59863 64.37546999999999 160.05004000000002 63.88443999999999 C 157.29369000000003 63.01035999999999 154.66173000000003 61.74588999999999 152.25292000000002 60.14621999999999 C 151.06029 59.35416999999999 149.92199000000002 58.47971999999999 148.85082000000003 57.52969999999999 C 148.03051000000002 56.80227999999999 146.89623000000003 55.06399999999999 145.91466000000003 54.72262999999999 C 145.79735000000002 55.50607999999999 146.17357 56.43575999999999 146.50878000000003 57.13534999999999 C 147.96020000000004 60.16445999999999 150.97338000000002 62.17056999999999 154.10546000000002 63.383819999999986 C 157.23778000000001 64.59701999999999 160.58129000000002 65.16018999999999 163.78063000000003 66.18337999999999 C 163.96825000000004 66.24331999999998 164.16625000000002 66.31228999999999 164.28905000000003 66.46615999999999 C 164.39147000000003 66.59445999999998 164.42577000000003 66.76266999999999 164.45677000000003 66.92385999999999 C 164.54906000000003 67.4014 164.64134000000004 67.87899999999999 164.73350000000002 68.35654 C 163.49998000000002 68.18710999999999 162.27195000000003 67.97793999999999 161.05845000000002 67.7023 C 155.17906000000002 66.36690999999999 149.40574 63.76662999999999 145.03416 59.53787 C 143.95823000000001 58.497099999999996 142.98167 57.30356 142.40550000000002 55.93185 C 142.30528 55.69332 142.21715 55.44931 142.14268 55.199859999999994 C 140.96434000000002 51.249849999999995 143.65647 52.043789999999994 146.02928 52.384249999999994 C 149.38743 52.866119999999995 152.73851 53.40078999999999 156.08543 53.95638999999999 C 159.25267 54.482209999999995 162.43748 54.97561999999999 165.58177 55.627959999999995 C 168.2418 56.17983999999999 171.06785 56.35086 173.65867 57.17453 C 173.97947 57.276579999999996 174.29026 57.411899999999996 174.57578 57.58719 C 172.45456000000001 57.64096 170.35019 57.48074 168.24631000000002 57.12534 C 165.81272 56.71427 163.06150000000002 56.3068 160.75327000000001 55.4155 C 162.22361 55.98325 163.69382000000002 56.551 165.16428000000002 57.11875 C 165.57541000000003 57.277499999999996 166.01206000000002 57.456089999999996 166.25852000000003 57.82139 C 166.45017000000004 58.10539 166.49644000000004 58.45976 166.53757000000004 58.79984 C 166.80149000000006 60.98227 167.06565000000003 63.164770000000004 167.32956000000004 65.3472 C 167.51584000000005 63.20749 167.70212000000004 61.06772 167.88840000000005 58.92795 C 167.90036000000003 58.79007 167.91733000000005 58.64078 168.01255000000003 58.54032 C 168.11228000000003 58.4351 168.26926000000003 58.41337 168.41355000000004 58.39774 C 170.46433000000005 58.175019999999996 172.78989000000004 58.190889999999996 174.86643000000004 57.77964 C 176.97483000000003 59.56748 176.75730000000004 65.19859 175.39109000000005 67.29087 C 174.34177000000005 68.89707 171.76170000000005 68.78202 170.10630000000006 68.76566 C 168.59312000000006 68.75071 167.08018000000007 68.65353999999999 165.57639000000006 68.47733 Z M 169.07495 66.50927 C 169.7417 67.09795 170.74707 67.05535 171.61987 66.8847 C 172.20154 66.77092999999999 172.78807999999998 66.60960999999999 173.27465999999998 66.27123999999999 C 173.91931 65.82293999999999 174.33105999999998 65.09728999999999 174.53844999999998 64.34002999999998 C 174.74584 63.58276999999998 174.7677 62.78814999999999 174.76610999999997 62.00304999999999 C 174.76488999999998 61.39000999999999 174.89952999999997 60.45885999999999 174.59557999999996 59.93846999999999 C 174.35839999999996 61.23552999999999 173.91564999999994 62.458429999999986 173.14013999999995 63.53575999999999 C 172.14282999999995 64.92114 170.69738999999996 65.97845 169.07494999999994 66.50926999999999 Z M 180.63013 72.80504 L 207.66004 70.52507 L 184.96998000000002 75.24504 C 175.96998000000002 77.11504000000001 166.74 77.63505 157.5901 76.76506 C 151.54005 76.18504 146.37013000000002 75.56505 146.37013000000002 75.56505 C 146.37013000000002 75.56505 128.94008000000002 66.28508 119.08009000000001 56.65508 C 120.44008000000001 63.62505 119.13014000000001 69.30503999999999 116.38014000000001 74.28508 C 116.42006 73.67502999999999 116.44008000000001 73.05503999999999 116.44008000000001 72.42502999999999 C 116.44008000000001 59.72507999999999 109.48 49.42502999999999 100.90004 49.42502999999999 C 92.32008 49.42502999999999 85.37013 59.72507999999999 85.37013 72.42502999999999 C 85.37013 72.42502999999999 83.44008000000001 62.45505999999999 87.62013 51.605019999999996 C 87.62013 51.605019999999996 48.17006000000001 46.38504999999999 35.020030000000006 44.305029999999995 C 21.880140000000004 42.215059999999994 25.190070000000006 52.08506 68.15003000000002 58.145059999999994 L 15.820070000000015 51.51505999999999 C 14.180060000000015 45.81504999999999 11.110110000000017 41.96506999999999 7.570070000000015 41.96506999999999 C 7.380130000000015 41.96506999999999 7.1900700000000155 41.97507999999999 7.000000000000015 42.00504999999999 C 5.959960000000015 42.12504999999999 4.969970000000015 42.58506999999999 4.050050000000015 43.32505999999999 C 3.709960000000015 43.595079999999996 3.380130000000015 43.915029999999994 3.050050000000015 44.26505999999999 C 2.5600600000000147 44.79502999999999 2.100100000000015 45.40506999999999 1.6600400000000148 46.09507999999999 C 1.320070000000015 46.63505999999999 1.0000100000000147 47.215079999999986 0.7000800000000148 47.84507999999999 C 0.5200300000000149 48.22507999999999 0.3501000000000148 48.62504999999999 0.18006000000001476 49.03507999999999 C 0.12012000000001477 49.18503999999999 0.06006000000001477 49.325059999999986 0.000010000000014775967 49.475079999999984 C 2.6600400000000146 36.60501999999998 9.350110000000015 26.775069999999985 9.350110000000015 26.775069999999985 L 61.110120000000016 33.24503999999999 L 13.95007 23.84508 C 23.08008 12.54503 36.11011 5.03508 50.47998 2.86504 C 81.91003 -1.89497 120.51001 -0.04493 130.80005 3.49504 C 124.3501 5.41502 107.95996 4.97508 86.19005999999999 5.94505 C 82.51001 6.24504 102.83006999999999 23.355020000000003 109.03002999999998 26.115029999999997 C 116.67846999999998 29.53776 143.75268999999997 27.459329999999998 155.31322999999998 26.377239999999997 C 157.31261999999998 26.17863 159.12072999999998 25.997239999999998 160.61010999999996 25.845069999999996 C 176.43432999999996 24.228129999999997 177.28002999999995 19.685039999999997 177.28002999999995 19.685039999999997 L 188.11010999999996 24.395059999999997 C 199.30004999999997 27.925029999999996 218.06005999999996 37.305029999999995 218.06005999999996 37.305029999999995 L 216.78002999999995 43.715059999999994 L 205.95006999999995 51.57504999999999 L 176.11009999999996 53.69504999999999 L 129.97996999999995 46.175029999999985 C 129.97996999999995 46.175029999999985 125.79002999999994 40.78507999999999 117.00999999999995 38.915019999999984 C 116.97996999999995 38.915019999999984 116.95994999999995 38.90506999999998 116.94004999999994 38.90506999999998 C 115.48997999999995 38.59506999999998 113.91001999999995 38.38504999999998 112.20005999999994 38.31503999999998 C 107.35007999999993 38.11502999999998 101.47996999999994 39.01504999999998 94.54002999999994 41.955049999999986 C 95.62010999999994 41.735019999999984 115.75999999999995 37.75503999999999 129.78001999999995 49.42501999999999 C 133.93003999999996 52.88503999999999 137.13011999999995 56.12502999999999 139.58006999999995 58.995029999999986 C 146.16002999999995 66.68502999999998 155.44005999999996 71.56503999999998 165.53001999999995 72.48501999999999 L 168.67002999999994 72.76504999999999 C 172.65000999999995 73.12503999999998 176.65000999999995 73.14504999999998 180.63010999999995 72.80502999999999 Z M 58.57715 25.85845 C 60.323240000000006 22.21178 65.50293 10.370170000000002 59.46777 9.716910000000002 C 33.88159 9.481250000000003 25.042480000000005 20.480150000000002 25.042480000000005 20.480150000000002 L 33.9812 21.970570000000002 C 33.9812 21.970570000000002 44.39331 23.62029 58.57715 25.85845 Z M 132.70007 37.41503 C 135.22998 37.785090000000004 137.95996000000002 38.31505 140.78003 38.935050000000004 L 140.77002000000002 38.92504 C 189.08679 47.608270000000005 227.02759000000003 38.89818 188.22949000000003 24.448290000000004 C 197.30395000000001 28.422840000000004 206.88208000000003 35.83287 183.76501000000002 38.58733 C 160.54663000000002 41.35393 120.63525000000001 32.93743 110.10620000000002 30.819630000000004 C 109.98901000000002 30.796070000000004 109.89770000000001 30.774890000000003 109.78882000000002 30.752060000000004 C 108.74854000000002 30.561330000000005 107.73096000000001 30.346360000000004 106.76001000000002 30.085070000000005 C 88.98999000000002 25.305040000000005 89.27002000000002 13.575060000000004 69.91003000000002 10.495040000000007 C 66.27002000000002 10.205060000000007 61.800040000000024 22.495040000000007 60.54003000000002 26.165020000000005 C 85.69005000000003 30.135050000000007 121.23998000000003 35.725080000000005 132.70006000000004 37.415020000000005 Z M 223.38574 52.24144 C 222.76306 48.67491 222.19751 45.47342999999999 222.12121 45.1682 C 222.1018 45.090869999999995 222.04565 45.221849999999996 222.07506999999998 45.51348 C 223.65123999999997 61.15472 216.29931 65.08312000000001 207.65747 70.52434 L 215.75964 66.78801 C 221.30664 64.23009 224.43603 58.25877 223.38574 52.24144 Z" stroke-linecap="round" />
</g>
</g>
</g>
</svg>